<svg className="svg-class" height="100px" viewBox="0 0 20 20" width="100px" xmlns="http://www.w3.org/2000/svg"><g fill="#212121"><path d="m13 11h-2v2h2v2h-2v2h2v-2h2v2h2v-2h-2v-2h2v-2h-2v2h-2z"/><path d="m5 5h2v2h-2z"/><path d="m5 3c-1.10457 0-2 .89543-2 2v2c0 1.10457.89543 2 2 2h2c1.10457 0 2-.89543 2-2v-2c0-1.10457-.89543-2-2-2zm-.75 1.75c0-.27614.22386-.5.5-.5h2.5c.27614 0 .5.22386.5.5v2.5c0 .27614-.22386.5-.5.5h-2.5c-.27614 0-.5-.22386-.5-.5z"/><path d="m5 13h2v2h-2z"/><path d="m5 11c-1.10457 0-2 .8954-2 2v2c0 1.1046.89543 2 2 2h2c1.10457 0 2-.8954 2-2v-2c0-1.1046-.89543-2-2-2zm-.75 1.75c0-.2761.22386-.5.5-.5h2.5c.27614 0 .5.2239.5.5v2.5c0 .2761-.22386.5-.5.5h-2.5c-.27614 0-.5-.2239-.5-.5z"/><path d="m13 5h2v2h-2z"/><path d="m13 3c-1.1046 0-2 .89543-2 2v2c0 1.10457.8954 2 2 2h2c1.1046 0 2-.89543 2-2v-2c0-1.10457-.8954-2-2-2zm-.75 1.75c0-.27614.2239-.5.5-.5h2.5c.2761 0 .5.22386.5.5v2.5c0 .27614-.2239.5-.5.5h-2.5c-.2761 0-.5-.22386-.5-.5z"/></g></svg>